# xmcd
#
# Track frame offsets:
#	150
#	23402
#	38079
#	46128
#	66761
#	89355
#	108714
#	133990
#	159628
#	169609
#	192117
#	206314
#	228781
#
# Disc length: 3245 seconds
#
# Revision: 0
# Processed by: cddbd v1.5.2PL0 Copyright (c) Steve Scherf et al.
# Submitted via: EZCDAudioConverter 1.3.4.1
#
DISCID=a10cab0d
DTITLE=Satan - Demos and Single 1981-1982
DYEAR=2013
DGENRE=Heavy Metal/NWOBHM
TTITLE0=Kiss Of Death
TTITLE1=Heads Will Roll
TTITLE2=Into The Fire
TTITLE3=Trial By Fire
TTITLE4=Blades Of Steel
TTITLE5=No Turning Back
TTITLE6=Break Free
TTITLE7=Pull The Trigger
TTITLE8=The Ritual
TTITLE9=The Executioner
TTITLE10=Heads Will Roll
TTITLE11=Kiss Of Death
TTITLE12=Oppression
EXTD=
EXTT0=
EXTT1=
EXTT2=
EXTT3=
EXTT4=
EXTT5=
EXTT6=
EXTT7=
EXTT8=
EXTT9=
EXTT10=
EXTT11=
EXTT12=
PLAYORDER=
